<svg id="Calque_1" xmlns="http://www.w3.org/2000/svg" xmlns:xlink="http://www.w3.org/1999/xlink" viewBox="0 0 644.67 161.83"><defs><style>.cls-1{fill:#88d8cc;}.cls-2{fill:url(#degrade);}</style><linearGradient id="degrade" x1="8.59" y1="127.11" x2="164.62" y2="32.75" gradientUnits="userSpaceOnUse"><stop offset=".03" stop-color="#79e2d5"/><stop offset=".25" stop-color="#68c5ca"/><stop offset=".72" stop-color="#3f7bae"/><stop offset="1" stop-color="#264d9d"/></linearGradient></defs><path class="cls-2" d="m171.24,30.42l-53.48,18.62c-5.56-5.98-12.42-10.06-20.59-12.23-11.71-3.1-23.03-1.49-33.96,4.85-5.35,3.1-9.78,7.06-13.32,11.87-3.54,4.81-6.08,9.95-7.63,15.39-1.55,5.45-1.98,11.14-1.29,17.07.27,2.34.74,4.64,1.38,6.89L0,129.82l53.24-18.07c1.7,1.78,3.52,3.4,5.48,4.84,4.81,3.54,9.97,5.99,15.46,7.34,5.49,1.36,11.21,1.7,17.15,1.01,5.93-.69,11.57-2.58,16.92-5.68s9.78-7.06,13.32-11.87c3.54-4.81,6.02-9.9,7.45-15.28,1.43-5.37,1.79-11.03,1.11-16.96-.28-2.39-.77-4.74-1.46-7.07l42.56-37.65Zm-54.54,58.41c-1.03,3.87-2.79,7.46-5.39,11-2.52,3.42-5.61,6.17-9.45,8.4s-7.76,3.55-11.99,4.04c-4.39.51-8.63.27-12.62-.72-3.53-.87-6.8-2.36-9.99-4.55l24.37-8.27.22-.07c1.16-.4,2.3-.91,3.41-1.56.02-.01.04-.03.06-.04,2.25-1.32,4.13-3,5.63-5.04,1.51-2.05,2.57-4.23,3.18-6.53.61-2.29.77-4.71.47-7.25-.29-2.53-1.13-5-2.52-7.38-2.71-4.67-6.57-7.67-11.57-9-4.98-1.32-9.8-.64-14.45,2.04-.02.01-.04.02-.06.03-.93.54-1.78,1.16-2.59,1.82l-.87.76-19.04,16.61c-.29-3.76.05-7.28,1.02-10.73,1.12-3.95,3.02-7.76,5.63-11.32,2.52-3.42,5.61-6.17,9.45-8.4,7.95-4.62,15.9-5.78,24.28-3.56,8.39,2.23,14.71,7.18,19.32,15.13,2.37,4.09,3.76,8.12,4.25,12.34.5,4.38.25,8.38-.77,12.23Z"/><path d="m203.4,128.09V0h12.81v128.09h-12.81Z"/><path d="m277.55,104.64c0,3.49-.66,6.8-1.99,9.92-1.32,3.13-3.16,5.86-5.5,8.21-2.35,2.35-5.05,4.18-8.12,5.5-3.07,1.32-6.4,1.98-10.01,1.98s-6.8-.66-9.92-1.98c-3.13-1.32-5.86-3.16-8.21-5.5s-4.18-5.08-5.5-8.21c-1.33-3.13-1.98-6.43-1.98-9.92v-52.14c0-3.49.66-6.79,1.98-9.92,1.32-3.13,3.16-5.86,5.5-8.21,2.35-2.35,5.08-4.18,8.21-5.5,3.13-1.32,6.43-1.98,9.92-1.98s6.95.66,10.01,1.98c3.07,1.32,5.77,3.16,8.12,5.5s4.18,5.08,5.5,8.21c1.32,3.13,1.99,6.44,1.99,9.92v32.65h-38.43v21.65c0,3.49,1.26,6.5,3.79,9.02,2.53,2.53,5.53,3.79,9.02,3.79s6.5-1.26,9.02-3.79,3.79-5.53,3.79-9.02v-11.55h12.81v9.38Zm-12.81-54.12c0-3.61-1.26-6.64-3.79-9.11-2.53-2.46-5.53-3.7-9.02-3.7s-6.49,1.23-9.02,3.7c-2.53,2.47-3.79,5.5-3.79,9.11v23.99h25.62v-23.99Z"/><path d="m376.05,104.64c0,3.49-.66,6.8-1.98,9.92-1.32,3.13-3.16,5.86-5.5,8.21s-5.08,4.18-8.21,5.5c-3.13,1.32-6.44,1.98-9.92,1.98-4.57,0-8.84-1.14-12.81-3.43v35h-12.81V52.5c0-3.49.66-6.79,1.98-9.92,1.32-3.13,3.16-5.86,5.5-8.21,2.34-2.35,5.08-4.18,8.21-5.5,3.13-1.32,6.43-1.98,9.92-1.98s6.79.66,9.92,1.98c3.13,1.32,5.86,3.16,8.21,5.5,2.34,2.35,4.18,5.08,5.5,8.21,1.32,3.13,1.98,6.44,1.98,9.92v52.14Zm-12.81-54.12c0-3.61-1.26-6.64-3.79-9.11-2.53-2.46-5.53-3.7-9.02-3.7s-6.5,1.23-9.02,3.7c-2.53,2.47-3.79,5.5-3.79,9.11v56.29c0,3.49,1.26,6.5,3.79,9.02s5.53,3.79,9.02,3.79,6.49-1.26,9.02-3.79c2.53-2.53,3.79-5.53,3.79-9.02v-56.29Z"/><path d="m437.38,104.64c0,3.49-.66,6.8-1.99,9.92-1.32,3.13-3.16,5.86-5.5,8.21-2.35,2.35-5.05,4.18-8.12,5.5-3.07,1.32-6.4,1.98-10.01,1.98s-6.8-.66-9.92-1.98c-3.13-1.32-5.86-3.16-8.21-5.5s-4.18-5.08-5.5-8.21c-1.33-3.13-1.98-6.43-1.98-9.92V29.59h12.81v77.21c0,3.49,1.26,6.5,3.79,9.02,2.53,2.53,5.53,3.79,9.02,3.79s6.5-1.26,9.02-3.79,3.79-5.53,3.79-9.02V29.59h12.81v75.05Z"/><path d="m447.67,128.09V0h12.81v128.09h-12.81Z"/><path d="m521.81,104.64c0,3.49-.66,6.8-1.99,9.92-1.32,3.13-3.16,5.86-5.5,8.21-2.35,2.35-5.05,4.18-8.12,5.5-3.07,1.32-6.4,1.98-10.01,1.98s-6.8-.66-9.92-1.98c-3.13-1.32-5.86-3.16-8.21-5.5s-4.18-5.08-5.5-8.21c-1.33-3.13-1.98-6.43-1.98-9.92v-10.28h12.81v12.45c0,3.49,1.26,6.5,3.79,9.02,2.53,2.53,5.53,3.79,9.02,3.79s6.5-1.26,9.02-3.79,3.79-5.53,3.79-9.02v-6.49c0-2.53-.75-4.75-2.25-6.68-1.5-1.92-3.1-3.49-4.78-4.69l-18.94-13.35c-3.61-2.53-6.58-5.68-8.93-9.47-2.35-3.79-3.52-7.97-3.52-12.54v-1.08c0-3.49.66-6.79,1.98-9.92,1.32-3.13,3.16-5.86,5.5-8.21,2.35-2.35,5.08-4.18,8.21-5.5,3.13-1.32,6.43-1.98,9.92-1.98s6.95.66,10.01,1.98c3.07,1.32,5.77,3.16,8.12,5.5s4.18,5.08,5.5,8.21c1.32,3.13,1.99,6.44,1.99,9.92v11.37h-12.81v-13.35c0-3.61-1.26-6.64-3.79-9.11-2.53-2.46-5.53-3.7-9.02-3.7s-6.49,1.23-9.02,3.7c-2.53,2.47-3.79,5.5-3.79,9.11v3.61c0,2.41.63,4.54,1.89,6.4,1.26,1.87,2.8,3.46,4.6,4.78l18.94,13.17c3.85,2.65,6.97,5.84,9.38,9.56,2.4,3.73,3.61,8,3.61,12.81v3.79Z"/><path d="m570.52,128.09V50.51c0-3.61-1.26-6.64-3.79-9.11-2.53-2.46-5.53-3.7-9.02-3.7s-6.5,1.23-9.02,3.7c-2.53,2.47-3.79,5.5-3.79,9.11v13.35h-12.81v-11.37c0-3.49.66-6.79,1.98-9.92,1.32-3.13,3.16-5.86,5.5-8.21,2.34-2.35,5.08-4.18,8.21-5.5,3.13-1.32,6.43-1.98,9.92-1.98s6.79.66,9.92,1.98c3.13,1.32,5.86,3.16,8.21,5.5,2.34,2.35,4.18,5.08,5.5,8.21,1.32,3.13,1.98,6.44,1.98,9.92v75.59h-12.81Z"/><path class="cls-1" d="m566.19,110.95c0,2.77-.51,5.32-1.53,7.67-1.02,2.35-2.38,4.36-4.06,6.04s-3.7,3.04-6.04,4.06c-2.35,1.02-4.84,1.53-7.49,1.53s-5.14-.51-7.49-1.53c-2.35-1.02-4.39-2.37-6.13-4.06-1.75-1.68-3.13-3.7-4.15-6.04-1.02-2.34-1.53-4.9-1.53-7.67s.51-5.14,1.53-7.49c1.02-2.35,2.4-4.36,4.15-6.04,1.74-1.68,3.79-3.04,6.13-4.06,2.34-1.02,4.84-1.53,7.49-1.53,5.41,0,9.95,1.83,13.62,5.5,3.67,3.67,5.5,8.21,5.5,13.62Z"/><path d="m631.86,63.86v-13.35c0-3.61-1.26-6.64-3.79-9.11-2.53-2.46-5.53-3.7-9.02-3.7s-6.49,1.23-9.02,3.7c-2.53,2.47-3.79,5.5-3.79,9.11v77.58h-12.81V52.5c0-3.49.66-6.79,1.98-9.92,1.32-3.13,3.16-5.86,5.5-8.21,2.35-2.35,5.08-4.18,8.21-5.5,3.13-1.32,6.43-1.98,9.92-1.98s6.95.66,10.01,1.98c3.07,1.32,5.77,3.16,8.12,5.5s4.18,5.08,5.5,8.21c1.32,3.13,1.99,6.44,1.99,9.92v11.37h-12.81Z"/></svg>